<mxfile host="app.diagrams.net" modified="2022-12-19T14:39:02.622Z" agent="5.0 (X11)" etag="t935_HZwhhYZt1w4mahR" version="20.4.0" type="github" pages="2">
  <diagram id="_PJ67XcqMZXlTyT5Fi1p" name="Forward">
    <mxGraphModel dx="1029" dy="864" grid="0" gridSize="10" guides="1" tooltips="1" connect="1" arrows="1" fold="1" page="1" pageScale="1" pageWidth="850" pageHeight="1100" math="0" shadow="0">
      <root>
        <mxCell id="0" />
        <mxCell id="1" parent="0" />
        <mxCell id="di-Gq2aE7XwfsbicIexF-21" value="" style="fontColor=#0066CC;verticalAlign=top;verticalLabelPosition=bottom;labelPosition=center;align=center;html=1;outlineConnect=0;fillColor=#CCCCCC;strokeColor=#6881B3;gradientColor=none;gradientDirection=north;strokeWidth=2;shape=mxgraph.networks.firewall;" parent="1" vertex="1">
          <mxGeometry x="459" y="66" width="84" height="119" as="geometry" />
        </mxCell>
        <mxCell id="di-Gq2aE7XwfsbicIexF-22" value="" style="fontColor=#0066CC;verticalAlign=top;verticalLabelPosition=bottom;labelPosition=center;align=center;html=1;outlineConnect=0;fillColor=#CCCCCC;strokeColor=#6881B3;gradientColor=none;gradientDirection=north;strokeWidth=2;shape=mxgraph.networks.user_male;" parent="1" vertex="1">
          <mxGeometry x="139" y="78" width="30" height="80" as="geometry" />
        </mxCell>
        <mxCell id="di-Gq2aE7XwfsbicIexF-23" value="" style="fontColor=#0066CC;verticalAlign=top;verticalLabelPosition=bottom;labelPosition=center;align=center;html=1;outlineConnect=0;fillColor=#CCCCCC;strokeColor=#6881B3;gradientColor=none;gradientDirection=north;strokeWidth=2;shape=mxgraph.networks.pc;" parent="1" vertex="1">
          <mxGeometry x="200" y="90.5" width="100" height="70" as="geometry" />
        </mxCell>
        <mxCell id="di-Gq2aE7XwfsbicIexF-27" value="&lt;b&gt;&lt;font style=&quot;font-size: 36px;&quot;&gt;A&lt;/font&gt;&lt;/b&gt;" style="text;html=1;strokeColor=none;fillColor=none;align=center;verticalAlign=middle;whiteSpace=wrap;rounded=0;" parent="1" vertex="1">
          <mxGeometry x="232" y="165.5" width="50" height="50" as="geometry" />
        </mxCell>
        <mxCell id="di-Gq2aE7XwfsbicIexF-28" value="&lt;b&gt;&lt;font style=&quot;font-size: 36px;&quot;&gt;C&lt;/font&gt;&lt;/b&gt;" style="text;html=1;strokeColor=none;fillColor=none;align=center;verticalAlign=middle;whiteSpace=wrap;rounded=0;" parent="1" vertex="1">
          <mxGeometry x="625" y="182.5" width="50" height="50" as="geometry" />
        </mxCell>
        <mxCell id="di-Gq2aE7XwfsbicIexF-29" value="&lt;b&gt;&lt;font style=&quot;font-size: 36px;&quot;&gt;B&lt;/font&gt;&lt;/b&gt;" style="text;html=1;strokeColor=none;fillColor=none;align=center;verticalAlign=middle;whiteSpace=wrap;rounded=0;" parent="1" vertex="1">
          <mxGeometry x="470" y="188" width="50" height="50" as="geometry" />
        </mxCell>
        <mxCell id="di-Gq2aE7XwfsbicIexF-31" value="" style="endArrow=classic;html=1;rounded=0;fontSize=36;exitX=1;exitY=0.5;exitDx=0;exitDy=0;exitPerimeter=0;entryX=0.06;entryY=0.5;entryDx=0;entryDy=0;entryPerimeter=0;" parent="1" source="di-Gq2aE7XwfsbicIexF-23" target="di-Gq2aE7XwfsbicIexF-24" edge="1">
          <mxGeometry width="50" height="50" relative="1" as="geometry">
            <mxPoint x="630" y="135.5" as="sourcePoint" />
            <mxPoint x="425" y="46.5" as="targetPoint" />
          </mxGeometry>
        </mxCell>
        <mxCell id="di-Gq2aE7XwfsbicIexF-33" value="" style="endArrow=classic;html=1;rounded=0;fontSize=36;exitX=0.91;exitY=0.5;exitDx=0;exitDy=0;exitPerimeter=0;" parent="1" source="di-Gq2aE7XwfsbicIexF-24" target="di-Gq2aE7XwfsbicIexF-21" edge="1">
          <mxGeometry width="50" height="50" relative="1" as="geometry">
            <mxPoint x="601" y="135.4999999999999" as="sourcePoint" />
            <mxPoint x="382" y="-17.5" as="targetPoint" />
          </mxGeometry>
        </mxCell>
        <mxCell id="di-Gq2aE7XwfsbicIexF-34" value="&lt;font style=&quot;font-size: 18px;&quot;&gt;10.12.34.100&lt;/font&gt;" style="text;html=1;strokeColor=none;fillColor=none;align=center;verticalAlign=middle;whiteSpace=wrap;rounded=0;fontSize=36;" parent="1" vertex="1">
          <mxGeometry x="587" y="36" width="120" height="30" as="geometry" />
        </mxCell>
        <mxCell id="di-Gq2aE7XwfsbicIexF-35" value="&lt;font style=&quot;font-size: 18px;&quot;&gt;10.35.0.125&lt;/font&gt;" style="text;html=1;strokeColor=none;fillColor=none;align=center;verticalAlign=middle;whiteSpace=wrap;rounded=0;fontSize=36;" parent="1" vertex="1">
          <mxGeometry x="194" y="57.5" width="120" height="30" as="geometry" />
        </mxCell>
        <mxCell id="di-Gq2aE7XwfsbicIexF-36" value="SSH本地端口转发，访问本机服务" style="text;html=1;strokeColor=none;fillColor=none;align=center;verticalAlign=middle;whiteSpace=wrap;rounded=0;fontSize=18;" parent="1" vertex="1">
          <mxGeometry x="279" y="236" width="286" height="30" as="geometry" />
        </mxCell>
        <mxCell id="di-Gq2aE7XwfsbicIexF-38" value="" style="fontColor=#0066CC;verticalAlign=top;verticalLabelPosition=bottom;labelPosition=center;align=center;html=1;outlineConnect=0;fillColor=#CCCCCC;strokeColor=#6881B3;gradientColor=none;gradientDirection=north;strokeWidth=2;shape=mxgraph.networks.proxy_server;fontSize=18;" parent="1" vertex="1">
          <mxGeometry x="534" y="359.25" width="63" height="78.5" as="geometry" />
        </mxCell>
        <mxCell id="di-Gq2aE7XwfsbicIexF-39" value="" style="fontColor=#0066CC;verticalAlign=top;verticalLabelPosition=bottom;labelPosition=center;align=center;html=1;outlineConnect=0;fillColor=#CCCCCC;strokeColor=#6881B3;gradientColor=none;gradientDirection=north;strokeWidth=2;shape=mxgraph.networks.server;fontSize=18;" parent="1" vertex="1">
          <mxGeometry x="605" y="75.5" width="90" height="100" as="geometry" />
        </mxCell>
        <mxCell id="di-Gq2aE7XwfsbicIexF-24" value="" style="html=1;outlineConnect=0;fillColor=#CCCCCC;strokeColor=#6881B3;gradientColor=none;gradientDirection=north;strokeWidth=2;shape=mxgraph.networks.cloud;fontColor=#ffffff;" parent="1" vertex="1">
          <mxGeometry x="325" y="93" width="110" height="65" as="geometry" />
        </mxCell>
        <mxCell id="di-Gq2aE7XwfsbicIexF-40" value="" style="endArrow=classic;html=1;rounded=0;fontSize=36;exitX=1;exitY=0.5;exitDx=0;exitDy=0;exitPerimeter=0;" parent="1" source="di-Gq2aE7XwfsbicIexF-21" target="di-Gq2aE7XwfsbicIexF-39" edge="1">
          <mxGeometry width="50" height="50" relative="1" as="geometry">
            <mxPoint x="406.0999999999999" y="135.5" as="sourcePoint" />
            <mxPoint x="469" y="135.5" as="targetPoint" />
          </mxGeometry>
        </mxCell>
        <mxCell id="di-Gq2aE7XwfsbicIexF-41" value="&lt;font style=&quot;font-size: 14px;&quot;&gt;22&lt;/font&gt;" style="text;html=1;strokeColor=none;fillColor=none;align=center;verticalAlign=middle;whiteSpace=wrap;rounded=0;fontSize=36;" parent="1" vertex="1">
          <mxGeometry x="568" y="102.5" width="29" height="22" as="geometry" />
        </mxCell>
        <mxCell id="di-Gq2aE7XwfsbicIexF-42" value="" style="fontColor=#0066CC;verticalAlign=top;verticalLabelPosition=bottom;labelPosition=center;align=center;html=1;outlineConnect=0;fillColor=#CCCCCC;strokeColor=#6881B3;gradientColor=none;gradientDirection=north;strokeWidth=2;shape=mxgraph.networks.firewall;" parent="1" vertex="1">
          <mxGeometry x="390" y="339" width="84" height="119" as="geometry" />
        </mxCell>
        <mxCell id="di-Gq2aE7XwfsbicIexF-43" value="" style="fontColor=#0066CC;verticalAlign=top;verticalLabelPosition=bottom;labelPosition=center;align=center;html=1;outlineConnect=0;fillColor=#CCCCCC;strokeColor=#6881B3;gradientColor=none;gradientDirection=north;strokeWidth=2;shape=mxgraph.networks.user_male;" parent="1" vertex="1">
          <mxGeometry x="70" y="351" width="30" height="80" as="geometry" />
        </mxCell>
        <mxCell id="di-Gq2aE7XwfsbicIexF-44" value="" style="fontColor=#0066CC;verticalAlign=top;verticalLabelPosition=bottom;labelPosition=center;align=center;html=1;outlineConnect=0;fillColor=#CCCCCC;strokeColor=#6881B3;gradientColor=none;gradientDirection=north;strokeWidth=2;shape=mxgraph.networks.pc;" parent="1" vertex="1">
          <mxGeometry x="131" y="363.5" width="100" height="70" as="geometry" />
        </mxCell>
        <mxCell id="di-Gq2aE7XwfsbicIexF-47" value="&lt;b&gt;&lt;font style=&quot;font-size: 36px;&quot;&gt;B&lt;/font&gt;&lt;/b&gt;" style="text;html=1;strokeColor=none;fillColor=none;align=center;verticalAlign=middle;whiteSpace=wrap;rounded=0;" parent="1" vertex="1">
          <mxGeometry x="401" y="461" width="50" height="50" as="geometry" />
        </mxCell>
        <mxCell id="di-Gq2aE7XwfsbicIexF-48" value="" style="endArrow=classic;html=1;rounded=0;fontSize=36;exitX=1;exitY=0.5;exitDx=0;exitDy=0;exitPerimeter=0;entryX=0.06;entryY=0.5;entryDx=0;entryDy=0;entryPerimeter=0;" parent="1" source="di-Gq2aE7XwfsbicIexF-44" target="di-Gq2aE7XwfsbicIexF-53" edge="1">
          <mxGeometry width="50" height="50" relative="1" as="geometry">
            <mxPoint x="561" y="408.5" as="sourcePoint" />
            <mxPoint x="356" y="319.5" as="targetPoint" />
          </mxGeometry>
        </mxCell>
        <mxCell id="di-Gq2aE7XwfsbicIexF-49" value="" style="endArrow=classic;html=1;rounded=0;fontSize=36;exitX=0.91;exitY=0.5;exitDx=0;exitDy=0;exitPerimeter=0;" parent="1" source="di-Gq2aE7XwfsbicIexF-53" target="di-Gq2aE7XwfsbicIexF-42" edge="1">
          <mxGeometry width="50" height="50" relative="1" as="geometry">
            <mxPoint x="532" y="408.4999999999999" as="sourcePoint" />
            <mxPoint x="313" y="255.5" as="targetPoint" />
          </mxGeometry>
        </mxCell>
        <mxCell id="di-Gq2aE7XwfsbicIexF-50" value="&lt;font style=&quot;font-size: 18px;&quot;&gt;10.12.34.100&lt;/font&gt;" style="text;html=1;strokeColor=none;fillColor=none;align=center;verticalAlign=middle;whiteSpace=wrap;rounded=0;fontSize=36;" parent="1" vertex="1">
          <mxGeometry x="505" y="321" width="120" height="30" as="geometry" />
        </mxCell>
        <mxCell id="di-Gq2aE7XwfsbicIexF-51" value="&lt;font style=&quot;font-size: 18px;&quot;&gt;10.35.0.125&lt;/font&gt;" style="text;html=1;strokeColor=none;fillColor=none;align=center;verticalAlign=middle;whiteSpace=wrap;rounded=0;fontSize=36;" parent="1" vertex="1">
          <mxGeometry x="125" y="330.5" width="120" height="30" as="geometry" />
        </mxCell>
        <mxCell id="di-Gq2aE7XwfsbicIexF-53" value="" style="html=1;outlineConnect=0;fillColor=#CCCCCC;strokeColor=#6881B3;gradientColor=none;gradientDirection=north;strokeWidth=2;shape=mxgraph.networks.cloud;fontColor=#ffffff;" parent="1" vertex="1">
          <mxGeometry x="256" y="366" width="110" height="65" as="geometry" />
        </mxCell>
        <mxCell id="di-Gq2aE7XwfsbicIexF-54" value="" style="endArrow=classic;html=1;rounded=0;fontSize=36;exitX=1;exitY=0.5;exitDx=0;exitDy=0;exitPerimeter=0;entryX=0;entryY=0.5;entryDx=0;entryDy=0;entryPerimeter=0;" parent="1" source="di-Gq2aE7XwfsbicIexF-42" target="di-Gq2aE7XwfsbicIexF-38" edge="1">
          <mxGeometry width="50" height="50" relative="1" as="geometry">
            <mxPoint x="337.0999999999999" y="408.5" as="sourcePoint" />
            <mxPoint x="400" y="408.5" as="targetPoint" />
          </mxGeometry>
        </mxCell>
        <mxCell id="di-Gq2aE7XwfsbicIexF-55" value="&lt;font style=&quot;font-size: 14px;&quot;&gt;22&lt;/font&gt;" style="text;html=1;strokeColor=none;fillColor=none;align=center;verticalAlign=middle;whiteSpace=wrap;rounded=0;fontSize=36;" parent="1" vertex="1">
          <mxGeometry x="499" y="375.5" width="29" height="22" as="geometry" />
        </mxCell>
        <mxCell id="di-Gq2aE7XwfsbicIexF-57" value="" style="fontColor=#0066CC;verticalAlign=top;verticalLabelPosition=bottom;labelPosition=center;align=center;html=1;outlineConnect=0;fillColor=#CCCCCC;strokeColor=#6881B3;gradientColor=none;gradientDirection=north;strokeWidth=2;shape=mxgraph.networks.storage;fontSize=14;" parent="1" vertex="1">
          <mxGeometry x="655" y="360.75" width="78" height="75.5" as="geometry" />
        </mxCell>
        <mxCell id="di-Gq2aE7XwfsbicIexF-58" value="" style="endArrow=classic;html=1;rounded=0;fontSize=36;exitX=0.88;exitY=0.5;exitDx=0;exitDy=0;exitPerimeter=0;entryX=0;entryY=0.5;entryDx=0;entryDy=0;entryPerimeter=0;" parent="1" source="di-Gq2aE7XwfsbicIexF-38" target="di-Gq2aE7XwfsbicIexF-57" edge="1">
          <mxGeometry width="50" height="50" relative="1" as="geometry">
            <mxPoint x="484.0000000000002" y="408.5000000000002" as="sourcePoint" />
            <mxPoint x="544" y="408.5" as="targetPoint" />
          </mxGeometry>
        </mxCell>
        <mxCell id="di-Gq2aE7XwfsbicIexF-59" value="&lt;font style=&quot;font-size: 18px;&quot;&gt;10.12.34.136&lt;/font&gt;" style="text;html=1;strokeColor=none;fillColor=none;align=center;verticalAlign=middle;whiteSpace=wrap;rounded=0;fontSize=36;" parent="1" vertex="1">
          <mxGeometry x="638" y="321" width="120" height="30" as="geometry" />
        </mxCell>
        <mxCell id="di-Gq2aE7XwfsbicIexF-60" value="&lt;font style=&quot;font-size: 14px;&quot;&gt;3306&lt;/font&gt;" style="text;html=1;strokeColor=none;fillColor=none;align=center;verticalAlign=middle;whiteSpace=wrap;rounded=0;fontSize=36;" parent="1" vertex="1">
          <mxGeometry x="615" y="375.5" width="29" height="22" as="geometry" />
        </mxCell>
        <mxCell id="di-Gq2aE7XwfsbicIexF-61" value="SSH本地端口转发，访问服务" style="text;html=1;strokeColor=none;fillColor=none;align=center;verticalAlign=middle;whiteSpace=wrap;rounded=0;fontSize=18;" parent="1" vertex="1">
          <mxGeometry x="279" y="507" width="286" height="30" as="geometry" />
        </mxCell>
        <mxCell id="di-Gq2aE7XwfsbicIexF-62" value="&lt;b&gt;&lt;font style=&quot;font-size: 36px;&quot;&gt;C&lt;/font&gt;&lt;/b&gt;" style="text;html=1;strokeColor=none;fillColor=none;align=center;verticalAlign=middle;whiteSpace=wrap;rounded=0;" parent="1" vertex="1">
          <mxGeometry x="537" y="456" width="50" height="50" as="geometry" />
        </mxCell>
        <mxCell id="di-Gq2aE7XwfsbicIexF-63" value="&lt;b&gt;&lt;font style=&quot;font-size: 36px;&quot;&gt;D&lt;/font&gt;&lt;/b&gt;" style="text;html=1;strokeColor=none;fillColor=none;align=center;verticalAlign=middle;whiteSpace=wrap;rounded=0;" parent="1" vertex="1">
          <mxGeometry x="675" y="458" width="50" height="50" as="geometry" />
        </mxCell>
        <mxCell id="di-Gq2aE7XwfsbicIexF-64" value="&lt;b&gt;&lt;font style=&quot;font-size: 36px;&quot;&gt;A&lt;/font&gt;&lt;/b&gt;" style="text;html=1;strokeColor=none;fillColor=none;align=center;verticalAlign=middle;whiteSpace=wrap;rounded=0;" parent="1" vertex="1">
          <mxGeometry x="165" y="443" width="50" height="50" as="geometry" />
        </mxCell>
        <mxCell id="di-Gq2aE7XwfsbicIexF-65" value="" style="fontColor=#0066CC;verticalAlign=top;verticalLabelPosition=bottom;labelPosition=center;align=center;html=1;outlineConnect=0;fillColor=#CCCCCC;strokeColor=#6881B3;gradientColor=none;gradientDirection=north;strokeWidth=2;shape=mxgraph.networks.proxy_server;fontSize=18;" parent="1" vertex="1">
          <mxGeometry x="534" y="617.25" width="63" height="78.5" as="geometry" />
        </mxCell>
        <mxCell id="di-Gq2aE7XwfsbicIexF-66" value="" style="fontColor=#0066CC;verticalAlign=top;verticalLabelPosition=bottom;labelPosition=center;align=center;html=1;outlineConnect=0;fillColor=#CCCCCC;strokeColor=#6881B3;gradientColor=none;gradientDirection=north;strokeWidth=2;shape=mxgraph.networks.firewall;" parent="1" vertex="1">
          <mxGeometry x="390" y="597" width="84" height="119" as="geometry" />
        </mxCell>
        <mxCell id="di-Gq2aE7XwfsbicIexF-67" value="" style="fontColor=#0066CC;verticalAlign=top;verticalLabelPosition=bottom;labelPosition=center;align=center;html=1;outlineConnect=0;fillColor=#CCCCCC;strokeColor=#6881B3;gradientColor=none;gradientDirection=north;strokeWidth=2;shape=mxgraph.networks.user_male;" parent="1" vertex="1">
          <mxGeometry x="56" y="609" width="30" height="80" as="geometry" />
        </mxCell>
        <mxCell id="di-Gq2aE7XwfsbicIexF-68" value="" style="fontColor=#0066CC;verticalAlign=top;verticalLabelPosition=bottom;labelPosition=center;align=center;html=1;outlineConnect=0;fillColor=#CCCCCC;strokeColor=#6881B3;gradientColor=none;gradientDirection=north;strokeWidth=2;shape=mxgraph.networks.pc;" parent="1" vertex="1">
          <mxGeometry x="117" y="621.5" width="100" height="70" as="geometry" />
        </mxCell>
        <mxCell id="di-Gq2aE7XwfsbicIexF-69" value="&lt;b&gt;&lt;font style=&quot;font-size: 36px;&quot;&gt;B&lt;/font&gt;&lt;/b&gt;" style="text;html=1;strokeColor=none;fillColor=none;align=center;verticalAlign=middle;whiteSpace=wrap;rounded=0;" parent="1" vertex="1">
          <mxGeometry x="401" y="719" width="50" height="50" as="geometry" />
        </mxCell>
        <mxCell id="di-Gq2aE7XwfsbicIexF-70" value="" style="endArrow=classic;html=1;rounded=0;fontSize=36;exitX=1;exitY=0.5;exitDx=0;exitDy=0;exitPerimeter=0;entryX=0.06;entryY=0.5;entryDx=0;entryDy=0;entryPerimeter=0;startArrow=classic;startFill=1;" parent="1" source="di-Gq2aE7XwfsbicIexF-68" target="di-Gq2aE7XwfsbicIexF-74" edge="1">
          <mxGeometry width="50" height="50" relative="1" as="geometry">
            <mxPoint x="561" y="666.5" as="sourcePoint" />
            <mxPoint x="356" y="577.5" as="targetPoint" />
          </mxGeometry>
        </mxCell>
        <mxCell id="di-Gq2aE7XwfsbicIexF-71" value="" style="endArrow=classic;html=1;rounded=0;fontSize=36;exitX=0.91;exitY=0.5;exitDx=0;exitDy=0;exitPerimeter=0;startArrow=classic;startFill=1;" parent="1" source="di-Gq2aE7XwfsbicIexF-74" target="di-Gq2aE7XwfsbicIexF-66" edge="1">
          <mxGeometry width="50" height="50" relative="1" as="geometry">
            <mxPoint x="532" y="666.4999999999999" as="sourcePoint" />
            <mxPoint x="313" y="513.5" as="targetPoint" />
          </mxGeometry>
        </mxCell>
        <mxCell id="di-Gq2aE7XwfsbicIexF-72" value="&lt;font style=&quot;font-size: 18px;&quot;&gt;10.12.34.100&lt;/font&gt;" style="text;html=1;strokeColor=none;fillColor=none;align=center;verticalAlign=middle;whiteSpace=wrap;rounded=0;fontSize=36;" parent="1" vertex="1">
          <mxGeometry x="505" y="579" width="120" height="30" as="geometry" />
        </mxCell>
        <mxCell id="di-Gq2aE7XwfsbicIexF-73" value="&lt;font style=&quot;font-size: 18px;&quot;&gt;10.35.0.125&lt;/font&gt;" style="text;html=1;strokeColor=none;fillColor=none;align=center;verticalAlign=middle;whiteSpace=wrap;rounded=0;fontSize=36;" parent="1" vertex="1">
          <mxGeometry x="111" y="588.5" width="120" height="30" as="geometry" />
        </mxCell>
        <mxCell id="di-Gq2aE7XwfsbicIexF-74" value="" style="html=1;outlineConnect=0;fillColor=#CCCCCC;strokeColor=#6881B3;gradientColor=none;gradientDirection=north;strokeWidth=2;shape=mxgraph.networks.cloud;fontColor=#ffffff;" parent="1" vertex="1">
          <mxGeometry x="256" y="624" width="110" height="65" as="geometry" />
        </mxCell>
        <mxCell id="di-Gq2aE7XwfsbicIexF-75" value="" style="endArrow=classic;html=1;rounded=0;fontSize=36;exitX=1;exitY=0.5;exitDx=0;exitDy=0;exitPerimeter=0;entryX=0;entryY=0.5;entryDx=0;entryDy=0;entryPerimeter=0;startArrow=classic;startFill=1;" parent="1" source="di-Gq2aE7XwfsbicIexF-66" target="di-Gq2aE7XwfsbicIexF-65" edge="1">
          <mxGeometry width="50" height="50" relative="1" as="geometry">
            <mxPoint x="337.0999999999999" y="666.5" as="sourcePoint" />
            <mxPoint x="400" y="666.5" as="targetPoint" />
          </mxGeometry>
        </mxCell>
        <mxCell id="di-Gq2aE7XwfsbicIexF-76" value="&lt;font style=&quot;font-size: 14px;&quot;&gt;22&lt;/font&gt;" style="text;html=1;strokeColor=none;fillColor=none;align=center;verticalAlign=middle;whiteSpace=wrap;rounded=0;fontSize=36;" parent="1" vertex="1">
          <mxGeometry x="217.5" y="628" width="29" height="22" as="geometry" />
        </mxCell>
        <mxCell id="di-Gq2aE7XwfsbicIexF-77" value="" style="fontColor=#0066CC;verticalAlign=top;verticalLabelPosition=bottom;labelPosition=center;align=center;html=1;outlineConnect=0;fillColor=#CCCCCC;strokeColor=#6881B3;gradientColor=none;gradientDirection=north;strokeWidth=2;shape=mxgraph.networks.storage;fontSize=14;" parent="1" vertex="1">
          <mxGeometry x="655" y="618.75" width="78" height="75.5" as="geometry" />
        </mxCell>
        <mxCell id="di-Gq2aE7XwfsbicIexF-78" value="" style="endArrow=classic;html=1;rounded=0;fontSize=36;exitX=0.88;exitY=0.5;exitDx=0;exitDy=0;exitPerimeter=0;entryX=0;entryY=0.5;entryDx=0;entryDy=0;entryPerimeter=0;" parent="1" source="di-Gq2aE7XwfsbicIexF-65" target="di-Gq2aE7XwfsbicIexF-77" edge="1">
          <mxGeometry width="50" height="50" relative="1" as="geometry">
            <mxPoint x="484.0000000000002" y="666.5000000000002" as="sourcePoint" />
            <mxPoint x="544" y="666.5" as="targetPoint" />
          </mxGeometry>
        </mxCell>
        <mxCell id="di-Gq2aE7XwfsbicIexF-79" value="&lt;font style=&quot;font-size: 18px;&quot;&gt;10.12.34.136&lt;/font&gt;" style="text;html=1;strokeColor=none;fillColor=none;align=center;verticalAlign=middle;whiteSpace=wrap;rounded=0;fontSize=36;" parent="1" vertex="1">
          <mxGeometry x="638" y="579" width="120" height="30" as="geometry" />
        </mxCell>
        <mxCell id="di-Gq2aE7XwfsbicIexF-80" value="&lt;font style=&quot;font-size: 14px;&quot;&gt;3306&lt;/font&gt;" style="text;html=1;strokeColor=none;fillColor=none;align=center;verticalAlign=middle;whiteSpace=wrap;rounded=0;fontSize=36;" parent="1" vertex="1">
          <mxGeometry x="615" y="633.5" width="29" height="22" as="geometry" />
        </mxCell>
        <mxCell id="di-Gq2aE7XwfsbicIexF-81" value="SSH远程端口转发，访问服务" style="text;html=1;strokeColor=none;fillColor=none;align=center;verticalAlign=middle;whiteSpace=wrap;rounded=0;fontSize=18;" parent="1" vertex="1">
          <mxGeometry x="279" y="765" width="286" height="30" as="geometry" />
        </mxCell>
        <mxCell id="di-Gq2aE7XwfsbicIexF-82" value="&lt;b&gt;&lt;font style=&quot;font-size: 36px;&quot;&gt;C&lt;/font&gt;&lt;/b&gt;" style="text;html=1;strokeColor=none;fillColor=none;align=center;verticalAlign=middle;whiteSpace=wrap;rounded=0;" parent="1" vertex="1">
          <mxGeometry x="537" y="714" width="50" height="50" as="geometry" />
        </mxCell>
        <mxCell id="di-Gq2aE7XwfsbicIexF-83" value="&lt;b&gt;&lt;font style=&quot;font-size: 36px;&quot;&gt;D&lt;/font&gt;&lt;/b&gt;" style="text;html=1;strokeColor=none;fillColor=none;align=center;verticalAlign=middle;whiteSpace=wrap;rounded=0;" parent="1" vertex="1">
          <mxGeometry x="675" y="716" width="50" height="50" as="geometry" />
        </mxCell>
        <mxCell id="di-Gq2aE7XwfsbicIexF-84" value="&lt;b&gt;&lt;font style=&quot;font-size: 36px;&quot;&gt;A&lt;/font&gt;&lt;/b&gt;" style="text;html=1;strokeColor=none;fillColor=none;align=center;verticalAlign=middle;whiteSpace=wrap;rounded=0;" parent="1" vertex="1">
          <mxGeometry x="151" y="701" width="50" height="50" as="geometry" />
        </mxCell>
      </root>
    </mxGraphModel>
  </diagram>
  <diagram id="siy3y3QqD_mfyGJA22fw" name="Bastion">
    <mxGraphModel dx="825" dy="448" grid="1" gridSize="10" guides="1" tooltips="1" connect="1" arrows="1" fold="1" page="1" pageScale="1" pageWidth="850" pageHeight="1100" math="0" shadow="0">
      <root>
        <mxCell id="0" />
        <mxCell id="1" parent="0" />
        <mxCell id="c6hRCkowUCNwGtoRUHQa-3" value="" style="rounded=0;whiteSpace=wrap;html=1;" vertex="1" parent="1">
          <mxGeometry x="310" y="340" width="250" height="180" as="geometry" />
        </mxCell>
        <mxCell id="c6hRCkowUCNwGtoRUHQa-16" value="" style="rounded=1;whiteSpace=wrap;html=1;fontSize=12;arcSize=8;" vertex="1" parent="1">
          <mxGeometry x="330" y="380" width="210" height="120" as="geometry" />
        </mxCell>
        <mxCell id="c6hRCkowUCNwGtoRUHQa-4" value="&lt;font style=&quot;font-size: 18px;&quot;&gt;Channel 1&lt;/font&gt;" style="text;html=1;strokeColor=none;fillColor=none;align=center;verticalAlign=middle;whiteSpace=wrap;rounded=0;" vertex="1" parent="1">
          <mxGeometry x="330" y="380" width="100" height="30" as="geometry" />
        </mxCell>
        <mxCell id="c6hRCkowUCNwGtoRUHQa-7" value="" style="shape=table;startSize=0;container=1;collapsible=0;childLayout=tableLayout;fontSize=12;dashed=1;dashPattern=1 2;" vertex="1" parent="1">
          <mxGeometry x="350" y="410" width="170" height="80" as="geometry" />
        </mxCell>
        <mxCell id="c6hRCkowUCNwGtoRUHQa-8" value="" style="shape=tableRow;horizontal=0;startSize=0;swimlaneHead=0;swimlaneBody=0;top=0;left=0;bottom=0;right=0;collapsible=0;dropTarget=0;fillColor=none;points=[[0,0.5],[1,0.5]];portConstraint=eastwest;fontSize=12;" vertex="1" parent="c6hRCkowUCNwGtoRUHQa-7">
          <mxGeometry width="170" height="20" as="geometry" />
        </mxCell>
        <mxCell id="c6hRCkowUCNwGtoRUHQa-9" value="Requests" style="shape=partialRectangle;html=1;whiteSpace=wrap;connectable=0;overflow=hidden;fillColor=none;top=0;left=0;bottom=0;right=0;pointerEvents=1;fontSize=12;" vertex="1" parent="c6hRCkowUCNwGtoRUHQa-8">
          <mxGeometry width="170" height="20" as="geometry">
            <mxRectangle width="170" height="20" as="alternateBounds" />
          </mxGeometry>
        </mxCell>
        <mxCell id="c6hRCkowUCNwGtoRUHQa-10" value="" style="shape=tableRow;horizontal=0;startSize=0;swimlaneHead=0;swimlaneBody=0;top=0;left=0;bottom=0;right=0;collapsible=0;dropTarget=0;fillColor=none;points=[[0,0.5],[1,0.5]];portConstraint=eastwest;fontSize=12;" vertex="1" parent="c6hRCkowUCNwGtoRUHQa-7">
          <mxGeometry y="20" width="170" height="20" as="geometry" />
        </mxCell>
        <mxCell id="c6hRCkowUCNwGtoRUHQa-11" value="Session 1" style="shape=partialRectangle;html=1;whiteSpace=wrap;connectable=0;overflow=hidden;fillColor=none;top=0;left=0;bottom=0;right=0;pointerEvents=1;fontSize=12;" vertex="1" parent="c6hRCkowUCNwGtoRUHQa-10">
          <mxGeometry width="170" height="20" as="geometry">
            <mxRectangle width="170" height="20" as="alternateBounds" />
          </mxGeometry>
        </mxCell>
        <mxCell id="c6hRCkowUCNwGtoRUHQa-12" value="" style="shape=tableRow;horizontal=0;startSize=0;swimlaneHead=0;swimlaneBody=0;top=0;left=0;bottom=0;right=0;collapsible=0;dropTarget=0;fillColor=none;points=[[0,0.5],[1,0.5]];portConstraint=eastwest;fontSize=12;" vertex="1" parent="c6hRCkowUCNwGtoRUHQa-7">
          <mxGeometry y="40" width="170" height="20" as="geometry" />
        </mxCell>
        <mxCell id="c6hRCkowUCNwGtoRUHQa-13" value="... ..." style="shape=partialRectangle;html=1;whiteSpace=wrap;connectable=0;overflow=hidden;fillColor=none;top=0;left=0;bottom=0;right=0;pointerEvents=1;fontSize=12;" vertex="1" parent="c6hRCkowUCNwGtoRUHQa-12">
          <mxGeometry width="170" height="20" as="geometry">
            <mxRectangle width="170" height="20" as="alternateBounds" />
          </mxGeometry>
        </mxCell>
        <mxCell id="c6hRCkowUCNwGtoRUHQa-14" value="" style="shape=tableRow;horizontal=0;startSize=0;swimlaneHead=0;swimlaneBody=0;top=0;left=0;bottom=0;right=0;collapsible=0;dropTarget=0;fillColor=none;points=[[0,0.5],[1,0.5]];portConstraint=eastwest;fontSize=12;" vertex="1" parent="c6hRCkowUCNwGtoRUHQa-7">
          <mxGeometry y="60" width="170" height="20" as="geometry" />
        </mxCell>
        <mxCell id="c6hRCkowUCNwGtoRUHQa-15" value="Session N" style="shape=partialRectangle;html=1;whiteSpace=wrap;connectable=0;overflow=hidden;fillColor=none;top=0;left=0;bottom=0;right=0;pointerEvents=1;fontSize=12;" vertex="1" parent="c6hRCkowUCNwGtoRUHQa-14">
          <mxGeometry width="170" height="20" as="geometry">
            <mxRectangle width="170" height="20" as="alternateBounds" />
          </mxGeometry>
        </mxCell>
        <mxCell id="c6hRCkowUCNwGtoRUHQa-17" value="&lt;font style=&quot;font-size: 18px;&quot;&gt;TCP Connection&lt;/font&gt;" style="text;html=1;strokeColor=none;fillColor=none;align=center;verticalAlign=middle;whiteSpace=wrap;rounded=0;fontSize=12;" vertex="1" parent="1">
          <mxGeometry x="310" y="340" width="150" height="40" as="geometry" />
        </mxCell>
      </root>
    </mxGraphModel>
  </diagram>
</mxfile>
